<svg xmlns="http://www.w3.org/2000/svg" xmlns:xlink="http://www.w3.org/1999/xlink" xmlns:svgjs="http://svgjs.com/svgjs" version="1.1" x="0" y="0" style="enable-background:new 0 0 512 512" xml:space="preserve" class="" viewBox="0.3 0 134.55 409.6"><g><path d="m.300781 404.480469c0 2.828125 2.289063 5.121093 5.121094 5.121093 2.828125 0 5.117187-2.292968 5.117187-5.121093 0-45.820313 27.277344-69.308594 57.035157-93.269531 29.761719 23.960937 57.035156 47.449218 57.035156 93.269531 0 2.828125 2.289063 5.121093 5.121094 5.121093 2.828125 0 5.121093-2.292968 5.121093-5.121093 0-49.632813-29.246093-75.71875-59.117187-99.839844 29.871094-24.121094 59.117187-50.210937 59.117187-99.839844 0-49.632812-29.246093-75.71875-59.117187-99.839843 29.871094-24.121094 59.117187-50.210938 59.117187-99.839844 0-2.832032-2.292968-5.121094-5.121093-5.121094-2.832031 0-5.121094 2.289062-5.121094 5.121094 0 45.820312-27.273437 69.308594-57.035156 93.269531-29.757813-23.960937-57.035157-47.449219-57.035157-93.269531 0-2.832032-2.289062-5.121094-5.117187-5.121094-2.832031 0-5.121094 2.289062-5.121094 5.121094 0 49.628906 29.246094 75.71875 59.113281 99.839844-29.867187 24.121093-59.113281 50.207031-59.113281 99.839843 0 49.628907 29.246094 75.71875 59.113281 99.839844-29.867187 24.121094-59.113281 50.207031-59.113281 99.839844zm10.238281-199.679688c0-45.820312 27.277344-69.3125 57.035157-93.269531 29.761719 23.957031 57.035156 47.449219 57.035156 93.269531 0 45.820313-27.273437 69.308594-57.035156 93.269531-29.757813-23.960937-57.035157-47.449218-57.035157-93.269531zm0 0" fill="#000000" data-original="#000000" class=""/></g></svg>