<svg xmlns="http://www.w3.org/2000/svg" xmlns:xlink="http://www.w3.org/1999/xlink" xmlns:svgjs="http://svgjs.com/svgjs" version="1.1" x="0" y="0" style="enable-background:new 0 0 512 512" xml:space="preserve" class="" viewBox="1.99 3 20.01 18.01"><g><path id="chart-line" d="m21 21h-16.5a2.32 2.32 0 0 1 -2.5-2.5v-14.5a1 1 0 0 1 2 0v14.5c0 .449.051.5.5.5h16.5a1 1 0 0 1 0 2zm-13.293-6.293 3.293-3.295 1.606 1.594a2 2 0 0 0 2.829-.006l4.273-4.292a1 1 0 1 0 -1.416-1.412l-4.274 4.293-1.606-1.596a2 2 0 0 0 -2.824 0l-3.295 3.3a1 1 0 1 0 1.414 1.414z" fill="#000000" data-original="#000000" class=""/></g></svg>