<svg xmlns="http://www.w3.org/2000/svg" xmlns:xlink="http://www.w3.org/1999/xlink" xmlns:svgjs="http://svgjs.com/svgjs" version="1.1" x="0" y="0" style="enable-background:new 0 0 512 512" xml:space="preserve" class="" viewBox="5 2 22 28"><g><g id="Icon_copy" data-name="Icon copy"><path d="m24 6h-12a3.0033 3.0033 0 0 0 -3 3v18a3.0033 3.0033 0 0 0 3 3h12a3.0033 3.0033 0 0 0 3-3v-18a3.0033 3.0033 0 0 0 -3-3zm1 21a1.0009 1.0009 0 0 1 -1 1h-12a1.0009 1.0009 0 0 1 -1-1v-18a1.0009 1.0009 0 0 1 1-1h12a1.0009 1.0009 0 0 1 1 1z" fill="#000000" data-original="#000000" class=""/><path d="m21 4a1 1 0 0 0 0-2h-11a5.0059 5.0059 0 0 0 -5 5v17a1 1 0 0 0 2 0v-17a3.0033 3.0033 0 0 1 3-3z" fill="#000000" data-original="#000000" class=""/></g></g></svg>