<svg xmlns="http://www.w3.org/2000/svg" version="1.1" xmlns:xlink="http://www.w3.org/1999/xlink" xmlns:svgjs="http://svgjs.com/svgjs" width="512" height="512" x="0" y="0" viewBox="0 0 401.994 401.994" style="enable-background:new 0 0 512 512" xml:space="preserve" class=""><g>
<g>
	<g>
		<path d="M0,401.991h182.724V219.265H0V401.991z M36.542,255.813h109.636v109.352H36.542V255.813z" fill="#000000" data-original="#000000" class=""></path>
		
		<rect x="292.352" y="365.449" width="36.553" height="36.545" fill="#000000" data-original="#000000" class=""></rect>
		<rect x="365.442" y="365.449" width="36.552" height="36.545" fill="#000000" data-original="#000000" class=""></rect>
		<polygon points="365.446,255.813 328.904,255.813 328.904,219.265 219.265,219.265 219.265,401.991 255.813,401.991 
			255.813,292.355 292.352,292.355 292.352,328.904 401.991,328.904 401.991,219.265 401.991,219.265 365.446,219.265 		" fill="#000000" data-original="#000000" class=""></polygon>
		<path d="M0,182.728h182.724V0H0V182.728z M36.542,36.542h109.636v109.636H36.542V36.542z" fill="#000000" data-original="#000000" class=""></path>
		
		<path d="M219.265,0v182.728h182.729V0H219.265z M365.446,146.178H255.813V36.542h109.633V146.178z" fill="#000000" data-original="#000000" class=""></path>
		
	</g>
</g>
<g>
</g>
<g>
</g>
<g>
</g>
<g>
</g>
<g>
</g>
<g>
</g>
<g>
</g>
<g>
</g>
<g>
</g>
<g>
</g>
<g>
</g>
<g>
</g>
<g>
</g>
<g>
</g>
<g>
</g>
</g></svg>
