<svg xmlns="http://www.w3.org/2000/svg" xmlns:xlink="http://www.w3.org/1999/xlink" xmlns:svgjs="http://svgjs.com/svgjs" version="1.1" x="0" y="0" style="enable-background:new 0 0 512 512" xml:space="preserve" class="" viewBox="5.89 16.9 52.21 30.2"><g transform="matrix(1,0,0,-1,0,64.00189208984375)"><path d="m53.52539 18.81982a4.193 4.193 0 0 0 -7.64062 1.479l-3.4961 18.14551-2.49219-6.69629a4.19362 4.19362 0 0 0 -6.54687-1.813l-2.43461-3.82957a4.1928 4.1928 0 0 0 -7.4043.626l-4.66992 11.123-1.8291-1.44238a4.19613 4.19613 0 0 0 -5.88867.69434l-4.69137 5.94728a2.50006 2.50006 0 0 0 3.92578 3.09668l4.19141-5.31348 2.03027 1.60157a4.19325 4.19325 0 0 0 6.4609-1.66993l4.4834-10.67871 2.15625 3.39258a4.19249 4.19249 0 0 0 5.96386 1.17285l3.06349 8.23145a4.193 4.193 0 0 0 8.04688-.66992l3.66015-18.99707 3.09082 4.79052a2.49995 2.49995 0 1 0 4.20117-2.71093z" fill="#000000" data-original="#000000" class=""/></g></svg>