<svg xmlns="http://www.w3.org/2000/svg" xmlns:xlink="http://www.w3.org/1999/xlink" xmlns:svgjs="http://svgjs.com/svgjs" version="1.1" x="0" y="0" style="enable-background:new 0 0 512 512" xml:space="preserve" class="" viewBox="17.17 12 325.65 300"><g><path d="m340.212 141.893c-1.833-2.269-4.113-4.021-6.561-5.553-6.442-4.032-13.49-6.686-20.697-8.944-14.928-4.677-30.251-7.508-45.706-9.735-17.45-2.514-34.995-3.964-52.593-4.84-1.292-.064-1.543-.47-1.539-1.669.043-12.125.026-24.251.026-36.376 0-1.916.002-1.918 1.883-1.918 29.223 0 58.447 0 87.67-.001 1.704 0 1.706-.003 1.706-1.689.001-19.148.001-38.295 0-57.443 0-1.723-.002-1.724-1.776-1.724-40.825 0-81.651 0-122.476 0s-81.651 0-122.476 0c-1.777 0-1.78.001-1.78 1.72-.001 19.148-.001 38.295 0 57.443 0 1.69.002 1.693 1.703 1.693 16.662.001 33.323 0 49.985.001 12.693 0 25.385.002 38.078-.003.807 0 1.5-.116 1.496 1.149-.043 12.561-.031 25.123-.015 37.685.001.745-.166 1.075-1.001 1.107-3.006.114-6.009.304-9.013.481-9.707.575-19.395 1.389-29.059 2.458-8.62.953-17.216 2.1-25.769 3.557-12.767 2.174-25.423 4.826-37.729 8.931-6.792 2.266-13.432 4.895-19.412 8.931-2.473 1.669-4.735 3.58-6.355 6.137-2.179 3.438-2.166 6.891.002 10.331.914 1.451 2.069 2.697 3.361 3.816 4.073 3.527 8.823 5.899 13.737 7.973 10.158 4.287 20.776 7.041 31.518 9.359 10.227 2.207 20.551 3.858 30.922 5.216 7.218.945 14.456 1.718 21.707 2.367 8.426.753 16.867 1.295 25.315 1.743 1.767.094 1.766.134 1.766 1.937 0 41.392 0 82.784.001 124.176 0 1.787.002 1.789 1.745 1.789 20.762.001 41.523.003 62.285-.004 2.153-.001 1.949.252 1.949-1.97.004-41.218.003-82.435.003-123.653 0-.436.026-.874-.003-1.308-.043-.643.182-.972.874-.978.784-.007 1.566-.1 2.35-.133 7.102-.3 14.192-.811 21.273-1.41 10.511-.89 20.995-2.044 31.434-3.583 12.681-1.87 25.271-4.201 37.634-7.626 8.578-2.377 17.011-5.163 24.831-9.523 3.215-1.793 6.227-3.867 8.613-6.724 3.582-4.292 3.606-8.846.093-13.193zm-16.352 9.593c-3.664 3.214-8.071 5.129-12.566 6.832-10.146 3.842-20.699 6.128-31.336 8.065-11.455 2.087-23 3.531-34.585 4.648-10.504 1.013-21.035 1.639-31.572 2.21-13.596.737-27.199.754-39.733.735-16.381-.172-31.675-.731-46.943-1.88-15.261-1.149-30.469-2.777-45.547-5.444-11.892-2.104-23.693-4.596-34.948-9.145-2.995-1.211-5.882-2.64-8.551-4.478-1.262-.869-2.434-1.843-3.424-3.019-2.615-3.106-2.639-6.226-.042-9.334 1.94-2.321 4.467-3.877 7.106-5.252 7.006-3.651 14.529-5.849 22.147-7.743 13.726-3.412 27.679-5.507 41.715-7.115 13.302-1.525 26.644-2.529 40.017-3.17 1.313-.063 1.588.312 1.585 1.555-.042 13.782-.01 27.563-.053 41.345-.004 1.264.275 1.654 1.621 1.735 18.956 1.134 37.917 1.18 56.884.395 2.047-.085 4.087-.351 6.133-.385 1.152-.019 1.332-.492 1.306-1.497-.065-2.484-.021-4.971-.021-7.457 0-11.339 0-22.679 0-34.018 0-1.666.003-1.69 1.72-1.613 11.588.52 23.151 1.369 34.689 2.571 13.792 1.437 27.51 3.348 41.061 6.333 8.644 1.904 17.192 4.151 25.285 7.841 2.863 1.305 5.622 2.798 8.007 4.889 4.633 4.065 4.678 8.332.045 12.396z" fill="#000000" data-original="#000000"/></g></svg>